<mxfile host="app.diagrams.net" modified="2022-03-14T06:59:01.267Z" agent="5.0 (Windows NT 10.0; Win64; x64) AppleWebKit/537.36 (KHTML, like Gecko) Chrome/99.0.4844.51 Safari/537.36" etag="xs5rOT0wVrevgfgVem9I" version="17.1.2" type="github">
  <diagram name="Page-1" id="7a6c530e-6e37-e111-ec74-82921da8cc10">
    <mxGraphModel dx="1483" dy="781" grid="1" gridSize="10" guides="1" tooltips="1" connect="1" arrows="1" fold="1" page="1" pageScale="1.5" pageWidth="1169" pageHeight="826" background="none" math="0" shadow="0">
      <root>
        <mxCell id="0" style=";html=1;" />
        <mxCell id="1" style=";html=1;" parent="0" />
        <mxCell id="k0CfdI_Zx_xQFmhT9WZl-38" style="edgeStyle=orthogonalEdgeStyle;rounded=0;orthogonalLoop=1;jettySize=auto;html=1;exitX=1;exitY=0.5;exitDx=0;exitDy=0;startArrow=classic;startFill=1;" edge="1" parent="1" source="k0CfdI_Zx_xQFmhT9WZl-27">
          <mxGeometry relative="1" as="geometry">
            <mxPoint x="1140" y="480" as="targetPoint" />
          </mxGeometry>
        </mxCell>
        <mxCell id="k0CfdI_Zx_xQFmhT9WZl-27" value="" style="rounded=1;whiteSpace=wrap;html=1;" vertex="1" parent="1">
          <mxGeometry x="757" y="430" width="253" height="100" as="geometry" />
        </mxCell>
        <mxCell id="k0CfdI_Zx_xQFmhT9WZl-24" style="edgeStyle=orthogonalEdgeStyle;rounded=0;orthogonalLoop=1;jettySize=auto;html=1;entryX=0;entryY=0.13;entryDx=0;entryDy=0;entryPerimeter=0;startArrow=classic;startFill=1;" edge="1" parent="1" source="k0CfdI_Zx_xQFmhT9WZl-23" target="k0CfdI_Zx_xQFmhT9WZl-3">
          <mxGeometry relative="1" as="geometry" />
        </mxCell>
        <mxCell id="k0CfdI_Zx_xQFmhT9WZl-25" style="edgeStyle=orthogonalEdgeStyle;rounded=0;orthogonalLoop=1;jettySize=auto;html=1;startArrow=classic;startFill=1;" edge="1" parent="1" source="k0CfdI_Zx_xQFmhT9WZl-23">
          <mxGeometry relative="1" as="geometry">
            <mxPoint x="630" y="360" as="targetPoint" />
          </mxGeometry>
        </mxCell>
        <mxCell id="k0CfdI_Zx_xQFmhT9WZl-23" value="" style="rounded=1;whiteSpace=wrap;html=1;" vertex="1" parent="1">
          <mxGeometry x="757" y="310" width="253" height="100" as="geometry" />
        </mxCell>
        <mxCell id="k0CfdI_Zx_xQFmhT9WZl-3" value="" style="rounded=1;whiteSpace=wrap;html=1;" vertex="1" parent="1">
          <mxGeometry x="1150" y="300" width="120" height="610" as="geometry" />
        </mxCell>
        <mxCell id="k0CfdI_Zx_xQFmhT9WZl-2" value="" style="verticalLabelPosition=bottom;html=1;verticalAlign=top;align=center;strokeColor=none;fillColor=#00BEF2;shape=mxgraph.azure.service_bus_topics_and_subscriptions;pointerEvents=1;" vertex="1" parent="1">
          <mxGeometry x="1187.5" y="575" width="45" height="50" as="geometry" />
        </mxCell>
        <mxCell id="k0CfdI_Zx_xQFmhT9WZl-4" value="Identity" style="verticalLabelPosition=bottom;html=1;verticalAlign=top;align=center;strokeColor=none;fillColor=#00BEF2;shape=mxgraph.azure.cloud_service;" vertex="1" parent="1">
          <mxGeometry x="790" y="335" width="50" height="40" as="geometry" />
        </mxCell>
        <mxCell id="k0CfdI_Zx_xQFmhT9WZl-11" style="edgeStyle=orthogonalEdgeStyle;rounded=0;orthogonalLoop=1;jettySize=auto;html=1;startArrow=classic;startFill=1;" edge="1" parent="1" source="k0CfdI_Zx_xQFmhT9WZl-9" target="k0CfdI_Zx_xQFmhT9WZl-10">
          <mxGeometry relative="1" as="geometry" />
        </mxCell>
        <mxCell id="k0CfdI_Zx_xQFmhT9WZl-9" value="Gateway" style="verticalLabelPosition=bottom;html=1;verticalAlign=top;align=center;strokeColor=none;fillColor=#00BEF2;shape=mxgraph.azure.azure_load_balancer;" vertex="1" parent="1">
          <mxGeometry x="460" y="522.5" width="50" height="35" as="geometry" />
        </mxCell>
        <mxCell id="k0CfdI_Zx_xQFmhT9WZl-10" value="" style="line;strokeWidth=4;direction=south;html=1;perimeter=backbonePerimeter;points=[];outlineConnect=0;" vertex="1" parent="1">
          <mxGeometry x="610" y="310" width="10" height="460" as="geometry" />
        </mxCell>
        <mxCell id="k0CfdI_Zx_xQFmhT9WZl-28" style="edgeStyle=orthogonalEdgeStyle;rounded=0;orthogonalLoop=1;jettySize=auto;html=1;startArrow=classic;startFill=1;" edge="1" parent="1" source="k0CfdI_Zx_xQFmhT9WZl-12" target="k0CfdI_Zx_xQFmhT9WZl-20">
          <mxGeometry relative="1" as="geometry" />
        </mxCell>
        <mxCell id="k0CfdI_Zx_xQFmhT9WZl-12" value="Catalog" style="verticalLabelPosition=bottom;html=1;verticalAlign=top;align=center;strokeColor=none;fillColor=#00BEF2;shape=mxgraph.azure.cloud_service;" vertex="1" parent="1">
          <mxGeometry x="790" y="454" width="50" height="40" as="geometry" />
        </mxCell>
        <mxCell id="k0CfdI_Zx_xQFmhT9WZl-14" value="" style="aspect=fixed;html=1;points=[];align=center;image;fontSize=12;image=img/lib/azure2/databases/Azure_Cosmos_DB.svg;" vertex="1" parent="1">
          <mxGeometry x="920" y="323" width="64" height="64" as="geometry" />
        </mxCell>
        <mxCell id="k0CfdI_Zx_xQFmhT9WZl-17" value="" style="edgeStyle=orthogonalEdgeStyle;rounded=0;orthogonalLoop=1;jettySize=auto;html=1;startArrow=classic;startFill=1;exitX=0.97;exitY=0.5;exitDx=0;exitDy=0;exitPerimeter=0;" edge="1" parent="1" source="k0CfdI_Zx_xQFmhT9WZl-4" target="k0CfdI_Zx_xQFmhT9WZl-14">
          <mxGeometry relative="1" as="geometry">
            <mxPoint x="928" y="372" as="sourcePoint" />
          </mxGeometry>
        </mxCell>
        <mxCell id="k0CfdI_Zx_xQFmhT9WZl-20" value="" style="aspect=fixed;html=1;points=[];align=center;image;fontSize=12;image=img/lib/azure2/databases/Azure_Cosmos_DB.svg;" vertex="1" parent="1">
          <mxGeometry x="920" y="442" width="64" height="64" as="geometry" />
        </mxCell>
        <mxCell id="k0CfdI_Zx_xQFmhT9WZl-21" value="" style="shape=message;html=1;whiteSpace=wrap;html=1;outlineConnect=0;" vertex="1" parent="1">
          <mxGeometry x="1080" y="335" width="15" height="10" as="geometry" />
        </mxCell>
        <mxCell id="k0CfdI_Zx_xQFmhT9WZl-39" style="edgeStyle=orthogonalEdgeStyle;rounded=0;orthogonalLoop=1;jettySize=auto;html=1;exitX=1;exitY=0.5;exitDx=0;exitDy=0;startArrow=classic;startFill=1;" edge="1" parent="1" source="k0CfdI_Zx_xQFmhT9WZl-29">
          <mxGeometry relative="1" as="geometry">
            <mxPoint x="1140" y="600" as="targetPoint" />
          </mxGeometry>
        </mxCell>
        <mxCell id="k0CfdI_Zx_xQFmhT9WZl-29" value="" style="rounded=1;whiteSpace=wrap;html=1;" vertex="1" parent="1">
          <mxGeometry x="757" y="550" width="253" height="100" as="geometry" />
        </mxCell>
        <mxCell id="k0CfdI_Zx_xQFmhT9WZl-30" style="edgeStyle=orthogonalEdgeStyle;rounded=0;orthogonalLoop=1;jettySize=auto;html=1;startArrow=classic;startFill=1;" edge="1" parent="1" source="k0CfdI_Zx_xQFmhT9WZl-31" target="k0CfdI_Zx_xQFmhT9WZl-32">
          <mxGeometry relative="1" as="geometry" />
        </mxCell>
        <mxCell id="k0CfdI_Zx_xQFmhT9WZl-31" value="Customer" style="verticalLabelPosition=bottom;html=1;verticalAlign=top;align=center;strokeColor=none;fillColor=#00BEF2;shape=mxgraph.azure.cloud_service;" vertex="1" parent="1">
          <mxGeometry x="790" y="574" width="50" height="40" as="geometry" />
        </mxCell>
        <mxCell id="k0CfdI_Zx_xQFmhT9WZl-32" value="" style="aspect=fixed;html=1;points=[];align=center;image;fontSize=12;image=img/lib/azure2/databases/Azure_Cosmos_DB.svg;" vertex="1" parent="1">
          <mxGeometry x="920" y="562" width="64" height="64" as="geometry" />
        </mxCell>
        <mxCell id="k0CfdI_Zx_xQFmhT9WZl-36" value="" style="shape=message;html=1;whiteSpace=wrap;html=1;outlineConnect=0;" vertex="1" parent="1">
          <mxGeometry x="1070" y="454" width="15" height="10" as="geometry" />
        </mxCell>
        <mxCell id="k0CfdI_Zx_xQFmhT9WZl-37" value="" style="shape=message;html=1;whiteSpace=wrap;html=1;outlineConnect=0;" vertex="1" parent="1">
          <mxGeometry x="1065" y="574" width="15" height="10" as="geometry" />
        </mxCell>
        <mxCell id="k0CfdI_Zx_xQFmhT9WZl-40" style="edgeStyle=orthogonalEdgeStyle;rounded=0;orthogonalLoop=1;jettySize=auto;html=1;exitX=1;exitY=0.5;exitDx=0;exitDy=0;startArrow=classic;startFill=1;" edge="1" parent="1" source="k0CfdI_Zx_xQFmhT9WZl-41">
          <mxGeometry relative="1" as="geometry">
            <mxPoint x="1140" y="720" as="targetPoint" />
          </mxGeometry>
        </mxCell>
        <mxCell id="k0CfdI_Zx_xQFmhT9WZl-41" value="" style="rounded=1;whiteSpace=wrap;html=1;" vertex="1" parent="1">
          <mxGeometry x="757" y="670" width="253" height="100" as="geometry" />
        </mxCell>
        <mxCell id="k0CfdI_Zx_xQFmhT9WZl-42" style="edgeStyle=orthogonalEdgeStyle;rounded=0;orthogonalLoop=1;jettySize=auto;html=1;startArrow=classic;startFill=1;" edge="1" parent="1" source="k0CfdI_Zx_xQFmhT9WZl-43" target="k0CfdI_Zx_xQFmhT9WZl-44">
          <mxGeometry relative="1" as="geometry" />
        </mxCell>
        <mxCell id="k0CfdI_Zx_xQFmhT9WZl-43" value="Order" style="verticalLabelPosition=bottom;html=1;verticalAlign=top;align=center;strokeColor=none;fillColor=#00BEF2;shape=mxgraph.azure.cloud_service;" vertex="1" parent="1">
          <mxGeometry x="790" y="694" width="50" height="40" as="geometry" />
        </mxCell>
        <mxCell id="k0CfdI_Zx_xQFmhT9WZl-44" value="" style="aspect=fixed;html=1;points=[];align=center;image;fontSize=12;image=img/lib/azure2/databases/Azure_Cosmos_DB.svg;" vertex="1" parent="1">
          <mxGeometry x="920" y="682" width="64" height="64" as="geometry" />
        </mxCell>
        <mxCell id="k0CfdI_Zx_xQFmhT9WZl-45" value="" style="shape=message;html=1;whiteSpace=wrap;html=1;outlineConnect=0;" vertex="1" parent="1">
          <mxGeometry x="1065" y="694" width="15" height="10" as="geometry" />
        </mxCell>
        <mxCell id="k0CfdI_Zx_xQFmhT9WZl-46" style="edgeStyle=orthogonalEdgeStyle;rounded=0;orthogonalLoop=1;jettySize=auto;html=1;exitX=1;exitY=0.5;exitDx=0;exitDy=0;startArrow=classic;startFill=1;" edge="1" parent="1" source="k0CfdI_Zx_xQFmhT9WZl-47">
          <mxGeometry relative="1" as="geometry">
            <mxPoint x="1140" y="840.0000000000002" as="targetPoint" />
          </mxGeometry>
        </mxCell>
        <mxCell id="k0CfdI_Zx_xQFmhT9WZl-47" value="" style="rounded=1;whiteSpace=wrap;html=1;" vertex="1" parent="1">
          <mxGeometry x="757" y="790" width="253" height="100" as="geometry" />
        </mxCell>
        <mxCell id="k0CfdI_Zx_xQFmhT9WZl-48" style="edgeStyle=orthogonalEdgeStyle;rounded=0;orthogonalLoop=1;jettySize=auto;html=1;startArrow=classic;startFill=1;" edge="1" parent="1" source="k0CfdI_Zx_xQFmhT9WZl-49">
          <mxGeometry relative="1" as="geometry">
            <mxPoint x="920" y="834" as="targetPoint" />
          </mxGeometry>
        </mxCell>
        <mxCell id="k0CfdI_Zx_xQFmhT9WZl-49" value="Order" style="verticalLabelPosition=bottom;html=1;verticalAlign=top;align=center;strokeColor=none;fillColor=#00BEF2;shape=mxgraph.azure.cloud_service;" vertex="1" parent="1">
          <mxGeometry x="790" y="814" width="50" height="40" as="geometry" />
        </mxCell>
        <mxCell id="k0CfdI_Zx_xQFmhT9WZl-51" value="" style="shape=message;html=1;whiteSpace=wrap;html=1;outlineConnect=0;" vertex="1" parent="1">
          <mxGeometry x="1065" y="814" width="15" height="10" as="geometry" />
        </mxCell>
        <mxCell id="k0CfdI_Zx_xQFmhT9WZl-52" value="" style="verticalLabelPosition=bottom;html=1;verticalAlign=top;align=center;strokeColor=none;fillColor=#00BEF2;shape=mxgraph.azure.storage_table;" vertex="1" parent="1">
          <mxGeometry x="927" y="811.5" width="50" height="45" as="geometry" />
        </mxCell>
      </root>
    </mxGraphModel>
  </diagram>
</mxfile>
